# xmcd
#
# Track frame offsets: 
#        150
#        17990
#        47414
#        63550
#        83302
#        95581
#        116692
#        137696
#        156353
#        172887
#
# Disc length: 2571 seconds
#
# Revision: 0
# Processed by: cddbd v1.5.2PL0 Copyright (c) Steve Scherf et al.
# Submitted via: ExactAudioCopy v0.99pb4
#
DISCID=780a090a
DTITLE=Mummy's a tree - Loftmusic for millions yet unaware
DYEAR=2005
DGENRE=
TTITLE0=A lifetime oversea
TTITLE1=Losing you
TTITLE2=Been to Spain by drinking wine
TTITLE3=Hissing
TTITLE4=If I can't be the one to love you always
TTITLE5=Picos
TTITLE6=Like a string
TTITLE7=Paraluna
TTITLE8=Jimmy's not our jukebox
TTITLE9=Smiling now
EXTD=
EXTT0=
EXTT1=
EXTT2=
EXTT3=
EXTT4=
EXTT5=
EXTT6=
EXTT7=
EXTT8=
EXTT9=
PLAYORDER=
